<svg width="146" height="27" viewBox="0 0 146 27" fill="none" xmlns="http://www.w3.org/2000/svg">
<path d="M27.2897 26.8483V27H21.6802C21.2253 27 20.7705 26.8483 20.3915 26.5449L6.82243 14.6376C5.91277 15.396 5.76116 15.6236 5.15473 16.3061C4.54829 17.0646 4.24507 17.9747 4.24507 18.9606V26.9241H0V1.13761H4.24507V15.7753C4.85151 15.0168 5.68536 14.1826 6.67082 13.2724C7.12565 12.8174 7.65628 12.4382 8.18692 11.9831C9.17238 11.1488 15.54 5.9157 22.3624 1.06177H24.1059V1.21345C15.919 6.82581 10.9159 11.073 10.0062 11.8314L24.1059 24.3455C25.0914 25.4073 26.1526 26.2415 27.2897 26.8483Z" fill="black"/>
<path d="M38.2814 2.27542V11.6041H47.2264V12.6659H38.2814V25.9383H53.7456V27.0001H34.0364V1.21362H53.7456V2.27542H38.2814Z" fill="black"/>
<path d="M87.9335 1.21362V27.0001H87.0239C87.0239 27.0001 85.432 21.3878 75.2741 15.7754C68.9823 12.3625 65.3437 9.70801 63.3728 7.2052V26.9243H62.2357V1.21362H64.055C65.6469 3.94396 69.0582 7.50857 75.6532 11.2249C82.3998 15.017 85.3562 17.9749 86.7207 20.0226V1.21362H87.9335Z" fill="black"/>
<path d="M119.999 27.0001H115.375L112.873 21.5394H98.5462L95.8931 27.0001H94.756L105.369 5.0057L107.719 0.0759277L108.325 1.28941L119.999 27.0001ZM112.343 20.4018L105.823 6.21919L99.0011 20.4018H112.343Z" fill="black"/>
<path d="M146 1.21362L136.07 15.4721V27.0001H131.824V15.4721L121.894 1.21362H127.2L135.842 13.8035L144.56 1.21362H146Z" fill="black"/>
</svg>